<svg width="433" height="289" viewBox="0 0 433 289" fill="none" xmlns="http://www.w3.org/2000/svg">
    <rect width="433" height="289" fill="#E5E5E5"/>
    <rect id="wrapper" width="433" height="289" fill="#C4C4C4"/>
    <g id="inner microwave">
        <rect id="glass" x="14" y="47" width="327" height="195" fill="white"/>
        <line id="rotation" x1="73.0022" y1="223.5" x2="297.002" y2="224.5" stroke="black"/>
    </g>
    <g id="door">
        <rect id="glass_2" x="14" y="47" width="327" height="195" fill="black"/>
        <rect id="handle" x="304" y="90" width="14" height="109" fill="#C4C4C4"/>
    </g>
    <g id="buttons">
        <rect id="display" x="355" y="47" width="69" height="195" fill="black"/>
        <rect id="timer" x="363.5" y="62.5" width="52" height="23" stroke="#E6DD15"/>
        <rect id="1" x="364" y="109" width="14" height="14" fill="#C4C4C4"/>
        <rect id="stop" x="402" y="192" width="14" height="14" fill="#C4C4C4"/>
        <rect id="0" x="383" y="172" width="14" height="14" fill="#C4C4C4"/>
        <rect id="start" x="364" y="192" width="33" height="14" fill="#C4C4C4"/>
        <rect id="9" x="402" y="151" width="14" height="14" fill="#C4C4C4"/>
        <rect id="8" x="383" y="151" width="14" height="14" fill="#C4C4C4"/>
        <rect id="7" x="364" y="151" width="14" height="14" fill="#C4C4C4"/>
        <rect id="6" x="401" y="130" width="14" height="14" fill="#C4C4C4"/>
        <rect id="5" x="383" y="130" width="14" height="14" fill="#C4C4C4"/>
        <rect id="4" x="364" y="130" width="14" height="14" fill="#C4C4C4"/>
        <rect id="3" x="401" y="109" width="14" height="14" fill="#C4C4C4"/>
        <rect id="2" x="383" y="109" width="14" height="14" fill="#C4C4C4"/>
    </g>
</svg>
